<mxfile host="app.diagrams.net" agent="Mozilla/5.0 (Windows NT 10.0; Win64; x64) AppleWebKit/537.36 (KHTML, like Gecko) Chrome/128.0.0.0 Safari/537.36" version="24.7.8">
  <diagram name="Page-1" id="2Pi1x47ixHZZRgRrMJnK">
    <mxGraphModel dx="1050" dy="569" grid="1" gridSize="3" guides="1" tooltips="1" connect="1" arrows="1" fold="1" page="1" pageScale="1" pageWidth="1169" pageHeight="827" math="0" shadow="0">
      <root>
        <mxCell id="0" />
        <mxCell id="1" parent="0" />
        <mxCell id="4icqVZU4OuM1tH6_TToa-3" value="&lt;font style=&quot;&quot; color=&quot;#0000ff&quot;&gt;Signaux pour stocker&amp;nbsp; les règles&lt;/font&gt;" style="text;html=1;align=center;verticalAlign=middle;whiteSpace=wrap;rounded=0;container=0;" parent="1" vertex="1">
          <mxGeometry x="947" y="152.44" width="95.81" height="30" as="geometry" />
        </mxCell>
        <mxCell id="4icqVZU4OuM1tH6_TToa-125" value="&lt;font style=&quot;&quot; color=&quot;#00ff00&quot;&gt;Signaux pour les requêtes&lt;/font&gt;" style="text;html=1;align=center;verticalAlign=middle;whiteSpace=wrap;rounded=0;container=0;" parent="1" vertex="1">
          <mxGeometry x="958" y="200.48" width="95.81" height="30" as="geometry" />
        </mxCell>
        <mxCell id="5UKPK0Xkv0rL48564Avm-79" value="&lt;div&gt;&lt;br&gt;&lt;/div&gt;&lt;div&gt;&lt;br&gt;&lt;/div&gt;&lt;div&gt;&lt;br&gt;&lt;/div&gt;&lt;div&gt;&lt;br&gt;&lt;/div&gt;&lt;div&gt;&lt;br&gt;&lt;/div&gt;&lt;div&gt;&lt;br&gt;&lt;/div&gt;&lt;div&gt;&lt;br&gt;&lt;/div&gt;&lt;div&gt;&lt;br&gt;&lt;/div&gt;&lt;div&gt;&lt;br&gt;&lt;/div&gt;&lt;div&gt;&lt;br&gt;&lt;/div&gt;&lt;div&gt;&lt;br&gt;&lt;/div&gt;&lt;div&gt;&lt;br&gt;&lt;/div&gt;&lt;div&gt;&lt;br&gt;&lt;/div&gt;&lt;div&gt;&lt;br&gt;&lt;/div&gt;&lt;div&gt;&lt;br&gt;&lt;/div&gt;Wrapper" style="rounded=1;whiteSpace=wrap;html=1;container=0;" parent="1" vertex="1">
          <mxGeometry x="576.1222675064839" y="190.55" width="170.06298629121898" height="266.45" as="geometry" />
        </mxCell>
        <mxCell id="5UKPK0Xkv0rL48564Avm-90" value="" style="endArrow=classic;html=1;rounded=0;entryX=-0.003;entryY=0.565;entryDx=0;entryDy=0;fillColor=#60a917;strokeColor=#2D7600;entryPerimeter=0;" parent="1" source="4icqVZU4OuM1tH6_TToa-110" target="5UKPK0Xkv0rL48564Avm-79" edge="1">
          <mxGeometry width="50" height="50" relative="1" as="geometry">
            <mxPoint x="669.3904813336787" y="424.59493670886076" as="sourcePoint" />
            <mxPoint x="722.3142915003884" y="370.1645569620253" as="targetPoint" />
          </mxGeometry>
        </mxCell>
        <mxCell id="5UKPK0Xkv0rL48564Avm-97" value="&lt;font style=&quot;font-size: 12px; font-weight: normal;&quot;&gt;MID_W&lt;/font&gt;" style="edgeLabel;html=1;align=center;verticalAlign=middle;resizable=0;points=[];fontStyle=1;fontColor=#00FF00;fontSize=12;container=0;" parent="5UKPK0Xkv0rL48564Avm-90" vertex="1" connectable="0">
          <mxGeometry x="0.5429" y="2" relative="1" as="geometry">
            <mxPoint x="-35" y="2" as="offset" />
          </mxGeometry>
        </mxCell>
        <mxCell id="5UKPK0Xkv0rL48564Avm-94" value="" style="endArrow=classic;html=1;rounded=0;entryX=-0.026;entryY=0.881;entryDx=0;entryDy=0;edgeStyle=orthogonalEdgeStyle;fillColor=#60a917;strokeColor=#2D7600;entryPerimeter=0;" parent="1" source="5UKPK0Xkv0rL48564Avm-25" target="5UKPK0Xkv0rL48564Avm-79" edge="1">
          <mxGeometry width="50" height="50" relative="1" as="geometry">
            <mxPoint x="446.52942167610956" y="441.9367088607595" as="sourcePoint" />
            <mxPoint x="722.3142915003884" y="370.1645569620253" as="targetPoint" />
          </mxGeometry>
        </mxCell>
        <mxCell id="5UKPK0Xkv0rL48564Avm-95" value="&lt;span style=&quot;font-weight: normal;&quot;&gt;addr_w&lt;/span&gt;" style="edgeLabel;html=1;align=center;verticalAlign=middle;resizable=0;points=[];fontStyle=1;fontColor=#00FF00;fontSize=13;container=0;" parent="5UKPK0Xkv0rL48564Avm-94" vertex="1" connectable="0">
          <mxGeometry x="0.0604" y="1" relative="1" as="geometry">
            <mxPoint as="offset" />
          </mxGeometry>
        </mxCell>
        <mxCell id="5UKPK0Xkv0rL48564Avm-102" value="" style="endArrow=classic;html=1;rounded=0;exitX=1;exitY=0.5;exitDx=0;exitDy=0;fillColor=#fa6800;strokeColor=#C73500;entryX=0.993;entryY=0.467;entryDx=0;entryDy=0;entryPerimeter=0;" parent="1" edge="1">
          <mxGeometry width="50" height="50" relative="1" as="geometry">
            <mxPoint x="746.4052537977029" y="299.005" as="sourcePoint" />
            <mxPoint x="886.2361330122268" y="301.91952000000015" as="targetPoint" />
          </mxGeometry>
        </mxCell>
        <mxCell id="5UKPK0Xkv0rL48564Avm-103" value="&lt;span style=&quot;font-weight: normal;&quot;&gt;write_resp&lt;/span&gt;" style="edgeLabel;html=1;align=center;verticalAlign=middle;resizable=0;points=[];fontStyle=1;fontColor=#FF0000;fontSize=17;container=0;" parent="5UKPK0Xkv0rL48564Avm-102" vertex="1" connectable="0">
          <mxGeometry x="-0.0743" y="-1" relative="1" as="geometry">
            <mxPoint as="offset" />
          </mxGeometry>
        </mxCell>
        <mxCell id="5UKPK0Xkv0rL48564Avm-63" value="" style="endArrow=classic;html=1;rounded=0;" parent="1" edge="1">
          <mxGeometry width="50" height="50" relative="1" as="geometry">
            <mxPoint x="482" y="264" as="sourcePoint" />
            <mxPoint x="574.5240324741903" y="264.22303797468356" as="targetPoint" />
          </mxGeometry>
        </mxCell>
        <mxCell id="4icqVZU4OuM1tH6_TToa-2" value="" style="ellipse;whiteSpace=wrap;html=1;fillColor=#0000FF;fontColor=#ffffff;strokeColor=#006EAF;container=0;gradientColor=none;" parent="1" vertex="1">
          <mxGeometry x="926.2519451648759" y="157.95" width="21.74805483512412" height="18.99" as="geometry" />
        </mxCell>
        <mxCell id="4icqVZU4OuM1tH6_TToa-82" value="&lt;span style=&quot;font-weight: normal;&quot;&gt;MID_R&lt;/span&gt;" style="text;html=1;align=center;verticalAlign=middle;whiteSpace=wrap;rounded=0;fontStyle=1;fontColor=#00FF00;container=0;" parent="1" vertex="1">
          <mxGeometry x="256.5856040963245" y="346.0844303797469" width="63.50857220005179" height="32.65822784810126" as="geometry" />
        </mxCell>
        <mxCell id="4icqVZU4OuM1tH6_TToa-83" value="" style="endArrow=classic;html=1;rounded=0;exitDx=0;exitDy=0;exitPerimeter=0;" parent="1" source="4icqVZU4OuM1tH6_TToa-110" edge="1">
          <mxGeometry width="50" height="50" relative="1" as="geometry">
            <mxPoint x="341.90552056317154" y="340.67999999999995" as="sourcePoint" />
            <mxPoint x="425.93664320118563" y="340.67999999999995" as="targetPoint" />
          </mxGeometry>
        </mxCell>
        <mxCell id="4icqVZU4OuM1tH6_TToa-84" value="" style="shape=waypoint;sketch=0;fillStyle=solid;size=6;pointerEvents=1;points=[];fillColor=none;resizable=0;rotatable=0;perimeter=centerPerimeter;snapToPoint=1;container=0;" parent="1" vertex="1">
          <mxGeometry x="325.67624372875866" y="331.1874683544304" width="20" height="20" as="geometry" />
        </mxCell>
        <mxCell id="4icqVZU4OuM1tH6_TToa-86" value="" style="endArrow=classic;html=1;rounded=0;fillColor=#60a917;strokeColor=#2D7600;entryX=-0.026;entryY=0.658;entryDx=0;entryDy=0;entryPerimeter=0;" parent="1" source="4icqVZU4OuM1tH6_TToa-109" target="5UKPK0Xkv0rL48564Avm-79" edge="1">
          <mxGeometry width="50" height="50" relative="1" as="geometry">
            <mxPoint x="425.93664320118563" y="544.05" as="sourcePoint" />
            <mxPoint x="696.1667284179325" y="381" as="targetPoint" />
          </mxGeometry>
        </mxCell>
        <mxCell id="4icqVZU4OuM1tH6_TToa-87" value="&lt;span style=&quot;font-weight: normal;&quot;&gt;MID_R&lt;/span&gt;" style="edgeLabel;html=1;align=center;verticalAlign=middle;resizable=0;points=[];fontStyle=1;fontColor=#00FF00;fontSize=12;container=0;" parent="4icqVZU4OuM1tH6_TToa-86" vertex="1" connectable="0">
          <mxGeometry x="0.5429" y="2" relative="1" as="geometry">
            <mxPoint x="-34" as="offset" />
          </mxGeometry>
        </mxCell>
        <mxCell id="5UKPK0Xkv0rL48564Avm-67" value="&lt;span style=&quot;font-weight: normal;&quot;&gt;S_AXI_ACLK&lt;/span&gt;" style="text;html=1;align=center;verticalAlign=middle;whiteSpace=wrap;rounded=0;fontStyle=1;container=0;" parent="1" vertex="1">
          <mxGeometry x="399.004762033342" y="247.51" width="63.50857220005179" height="32.65822784810126" as="geometry" />
        </mxCell>
        <mxCell id="5UKPK0Xkv0rL48564Avm-68" value="&lt;span style=&quot;font-weight: normal;&quot;&gt;S_AXI_ARESETN&lt;/span&gt;" style="text;html=1;align=center;verticalAlign=middle;whiteSpace=wrap;rounded=0;fontStyle=1;container=0;" parent="1" vertex="1">
          <mxGeometry x="393.6" y="294.00430379746837" width="63.50857220005179" height="32.65822784810126" as="geometry" />
        </mxCell>
        <mxCell id="5UKPK0Xkv0rL48564Avm-71" value="&lt;span style=&quot;font-weight: normal;&quot;&gt;S_AXI_AWADDR&lt;/span&gt;" style="text;html=1;align=center;verticalAlign=middle;whiteSpace=wrap;rounded=0;fontStyle=1;container=0;fontColor=#000000;" parent="1" vertex="1">
          <mxGeometry x="246" y="407.7586075949367" width="63.50857220005179" height="32.65822784810126" as="geometry" />
        </mxCell>
        <mxCell id="5UKPK0Xkv0rL48564Avm-77" value="&lt;span style=&quot;font-weight: normal;&quot;&gt;MID_W&lt;/span&gt;" style="text;html=1;align=center;verticalAlign=middle;whiteSpace=wrap;rounded=0;fontStyle=1;fontColor=#00FF00;container=0;" parent="1" vertex="1">
          <mxGeometry x="256.5839199703594" y="317" width="63.51352352723231" height="52" as="geometry" />
        </mxCell>
        <mxCell id="5UKPK0Xkv0rL48564Avm-20" value="" style="shape=waypoint;sketch=0;fillStyle=solid;size=6;pointerEvents=1;points=[];fillColor=none;resizable=0;rotatable=0;perimeter=centerPerimeter;snapToPoint=1;container=0;" parent="1" vertex="1">
          <mxGeometry x="415.3561925334714" y="378.5459493670886" width="20" height="20" as="geometry" />
        </mxCell>
        <mxCell id="5UKPK0Xkv0rL48564Avm-23" value="" style="endArrow=classic;html=1;rounded=0;" parent="1" edge="1">
          <mxGeometry width="50" height="50" relative="1" as="geometry">
            <mxPoint x="338.2609047143088" y="389.5459493670886" as="sourcePoint" />
            <mxPoint x="422.9390009810445" y="389.5459493670886" as="targetPoint" />
          </mxGeometry>
        </mxCell>
        <mxCell id="5UKPK0Xkv0rL48564Avm-22" value="" style="shape=waypoint;sketch=0;fillStyle=solid;size=6;pointerEvents=1;points=[];fillColor=none;resizable=0;rotatable=0;perimeter=centerPerimeter;snapToPoint=1;container=0;" parent="1" vertex="1">
          <mxGeometry x="325.67624372875866" y="379.5459493670886" width="20" height="20" as="geometry" />
        </mxCell>
        <mxCell id="5UKPK0Xkv0rL48564Avm-25" value="" style="shape=waypoint;sketch=0;fillStyle=solid;size=6;pointerEvents=1;points=[];fillColor=none;resizable=0;rotatable=0;perimeter=centerPerimeter;snapToPoint=1;container=0;" parent="1" vertex="1">
          <mxGeometry x="415.3561925334714" y="414.09025316455694" width="20" height="20" as="geometry" />
        </mxCell>
        <mxCell id="5UKPK0Xkv0rL48564Avm-28" value="" style="endArrow=classic;html=1;rounded=0;" parent="1" source="5UKPK0Xkv0rL48564Avm-27" target="5UKPK0Xkv0rL48564Avm-25" edge="1">
          <mxGeometry width="50" height="50" relative="1" as="geometry">
            <mxPoint x="722.3142915003884" y="599.1535443037975" as="sourcePoint" />
            <mxPoint x="383.6019064334456" y="424.97632911392407" as="targetPoint" />
          </mxGeometry>
        </mxCell>
        <mxCell id="5UKPK0Xkv0rL48564Avm-27" value="" style="shape=waypoint;sketch=0;fillStyle=solid;size=6;pointerEvents=1;points=[];fillColor=none;resizable=0;rotatable=0;perimeter=centerPerimeter;snapToPoint=1;container=0;" parent="1" vertex="1">
          <mxGeometry x="330.6780962667357" y="414.09025316455694" width="20" height="20" as="geometry" />
        </mxCell>
        <mxCell id="5UKPK0Xkv0rL48564Avm-30" value="" style="shape=waypoint;sketch=0;fillStyle=solid;size=6;pointerEvents=1;points=[];fillColor=none;resizable=0;rotatable=0;perimeter=centerPerimeter;snapToPoint=1;container=0;" parent="1" vertex="1">
          <mxGeometry x="415.3561925334714" y="434.6345569620253" width="20" height="20" as="geometry" />
        </mxCell>
        <mxCell id="5UKPK0Xkv0rL48564Avm-33" value="" style="endArrow=classic;html=1;rounded=0;" parent="1" edge="1">
          <mxGeometry width="50" height="50" relative="1" as="geometry">
            <mxPoint x="341.26201623709505" y="444.0645569620253" as="sourcePoint" />
            <mxPoint x="425.9401125038307" y="444.0645569620253" as="targetPoint" />
          </mxGeometry>
        </mxCell>
        <mxCell id="5UKPK0Xkv0rL48564Avm-32" value="" style="shape=waypoint;sketch=0;fillStyle=solid;size=6;pointerEvents=1;points=[];fillColor=none;resizable=0;rotatable=0;perimeter=centerPerimeter;snapToPoint=1;container=0;" parent="1" vertex="1">
          <mxGeometry x="330.6780962667357" y="434.6345569620253" width="20" height="20" as="geometry" />
        </mxCell>
        <mxCell id="5UKPK0Xkv0rL48564Avm-43" value="" style="endArrow=classic;html=1;rounded=0;entryX=0.5;entryY=0;entryDx=0;entryDy=0;" parent="1" edge="1" target="tJ9q71QjpeCQgc5nBUuA-1">
          <mxGeometry width="50" height="50" relative="1" as="geometry">
            <mxPoint x="666" y="105" as="sourcePoint" />
            <mxPoint x="640.3595271018299" y="75.66316455696193" as="targetPoint" />
          </mxGeometry>
        </mxCell>
        <mxCell id="gyKQ24Q-jmimMS2x2QPJ-3" value="&lt;span style=&quot;color: rgb(0, 0, 255); font-size: 13px; text-wrap: wrap; background-color: rgb(251, 251, 251);&quot;&gt;w_rule_enable&lt;/span&gt;" style="edgeLabel;html=1;align=center;verticalAlign=middle;resizable=0;points=[];" vertex="1" connectable="0" parent="5UKPK0Xkv0rL48564Avm-43">
          <mxGeometry x="-0.0128" y="-2" relative="1" as="geometry">
            <mxPoint x="1" y="-35" as="offset" />
          </mxGeometry>
        </mxCell>
        <mxCell id="5UKPK0Xkv0rL48564Avm-48" value="" style="endArrow=classic;html=1;rounded=0;" parent="1" edge="1">
          <mxGeometry width="50" height="50" relative="1" as="geometry">
            <mxPoint x="338.3609417650684" y="365.10746835443047" as="sourcePoint" />
            <mxPoint x="423.039038031804" y="365.1074683544306" as="targetPoint" />
          </mxGeometry>
        </mxCell>
        <mxCell id="5UKPK0Xkv0rL48564Avm-47" value="" style="shape=waypoint;sketch=0;fillStyle=solid;size=6;pointerEvents=1;points=[];fillColor=none;resizable=0;rotatable=0;perimeter=centerPerimeter;snapToPoint=1;container=0;" parent="1" vertex="1">
          <mxGeometry x="326.6766142363541" y="354.10746835443047" width="20" height="20" as="geometry" />
        </mxCell>
        <mxCell id="5UKPK0Xkv0rL48564Avm-72" value="&lt;span style=&quot;font-weight: normal;&quot;&gt;S_AXI_ARADDR&lt;/span&gt;" style="text;html=1;align=center;verticalAlign=middle;whiteSpace=wrap;rounded=0;fontStyle=1;container=0;" parent="1" vertex="1">
          <mxGeometry x="246" y="428.30291139240506" width="63.50857220005179" height="32.65822784810126" as="geometry" />
        </mxCell>
        <mxCell id="4icqVZU4OuM1tH6_TToa-98" value="" style="endArrow=classic;html=1;rounded=0;" parent="1" edge="1">
          <mxGeometry width="50" height="50" relative="1" as="geometry">
            <mxPoint x="485.02310620520166" y="309.677341772152" as="sourcePoint" />
            <mxPoint x="574.3561925334714" y="309.677341772152" as="targetPoint" />
            <Array as="points" />
          </mxGeometry>
        </mxCell>
        <mxCell id="4icqVZU4OuM1tH6_TToa-100" value="" style="endArrow=classic;html=1;rounded=0;" parent="1" edge="1">
          <mxGeometry width="50" height="50" relative="1" as="geometry">
            <mxPoint x="326.74323823638383" y="300.68" as="sourcePoint" />
            <mxPoint x="327.02310620520166" y="300.677341772152" as="targetPoint" />
            <Array as="points" />
          </mxGeometry>
        </mxCell>
        <mxCell id="4icqVZU4OuM1tH6_TToa-101" value="" style="endArrow=classic;html=1;rounded=0;" parent="1" edge="1">
          <mxGeometry width="50" height="50" relative="1" as="geometry">
            <mxPoint x="641.3527232308261" y="38.81999999999999" as="sourcePoint" />
            <mxPoint x="641.3631648106409" y="38.817468354430446" as="targetPoint" />
          </mxGeometry>
        </mxCell>
        <mxCell id="4icqVZU4OuM1tH6_TToa-106" value="" style="endArrow=classic;html=1;rounded=0;" parent="1" edge="1">
          <mxGeometry width="50" height="50" relative="1" as="geometry">
            <mxPoint x="552.0333456835865" y="38.81999999999999" as="sourcePoint" />
            <mxPoint x="552.0196369025566" y="38.81999999999999" as="targetPoint" />
          </mxGeometry>
        </mxCell>
        <mxCell id="4icqVZU4OuM1tH6_TToa-108" value="" style="endArrow=classic;html=1;rounded=0;entryX=0.75;entryY=0;entryDx=0;entryDy=0;" parent="1" target="tJ9q71QjpeCQgc5nBUuA-1" edge="1">
          <mxGeometry width="50" height="50" relative="1" as="geometry">
            <mxPoint x="774" y="117" as="sourcePoint" />
            <mxPoint x="641.3527232308261" y="38.81999999999999" as="targetPoint" />
          </mxGeometry>
        </mxCell>
        <mxCell id="gyKQ24Q-jmimMS2x2QPJ-2" value="&lt;span style=&quot;color: rgb(0, 0, 255); font-size: 13px;&quot;&gt;rule_number&lt;/span&gt;" style="edgeLabel;html=1;align=center;verticalAlign=middle;resizable=0;points=[];" vertex="1" connectable="0" parent="4icqVZU4OuM1tH6_TToa-108">
          <mxGeometry x="-0.0207" y="-3" relative="1" as="geometry">
            <mxPoint as="offset" />
          </mxGeometry>
        </mxCell>
        <mxCell id="4icqVZU4OuM1tH6_TToa-109" value="" style="shape=waypoint;sketch=0;fillStyle=solid;size=6;pointerEvents=1;points=[];fillColor=none;resizable=0;rotatable=0;perimeter=centerPerimeter;snapToPoint=1;container=0;" parent="1" vertex="1">
          <mxGeometry x="415.3494560296108" y="355.47886075949367" width="20" height="20" as="geometry" />
        </mxCell>
        <mxCell id="4icqVZU4OuM1tH6_TToa-111" value="" style="endArrow=classic;html=1;rounded=0;exitX=0.018;exitY=0.541;exitDx=0;exitDy=0;exitPerimeter=0;" parent="1" source="4icqVZU4OuM1tH6_TToa-84" target="4icqVZU4OuM1tH6_TToa-110" edge="1">
          <mxGeometry width="50" height="50" relative="1" as="geometry">
            <mxPoint x="336.0333456835865" y="341" as="sourcePoint" />
            <mxPoint x="425.93664320118563" y="340.67999999999995" as="targetPoint" />
          </mxGeometry>
        </mxCell>
        <mxCell id="4icqVZU4OuM1tH6_TToa-110" value="" style="shape=waypoint;sketch=0;fillStyle=solid;size=6;pointerEvents=1;points=[];fillColor=none;resizable=0;rotatable=0;perimeter=centerPerimeter;snapToPoint=1;container=0;" parent="1" vertex="1">
          <mxGeometry x="415.3494560296108" y="331.18886075949365" width="20" height="20" as="geometry" />
        </mxCell>
        <mxCell id="4icqVZU4OuM1tH6_TToa-113" value="" style="endArrow=classic;html=1;rounded=0;fillColor=#60a917;strokeColor=#2D7600;entryX=-0.026;entryY=0.658;entryDx=0;entryDy=0;entryPerimeter=0;" parent="1" edge="1">
          <mxGeometry width="50" height="50" relative="1" as="geometry">
            <mxPoint x="425.93664320118563" y="389.05" as="sourcePoint" />
            <mxPoint x="572.9911078177103" y="390.05" as="targetPoint" />
          </mxGeometry>
        </mxCell>
        <mxCell id="4icqVZU4OuM1tH6_TToa-117" value="&lt;font style=&quot;font-size: 13px; font-weight: normal;&quot;&gt;x_enable&lt;/font&gt;" style="edgeLabel;html=1;align=center;verticalAlign=middle;resizable=0;points=[];fontColor=#00FF00;fontStyle=1;fontSize=13;container=0;" parent="4icqVZU4OuM1tH6_TToa-113" vertex="1" connectable="0">
          <mxGeometry x="-0.0295" relative="1" as="geometry">
            <mxPoint x="6" as="offset" />
          </mxGeometry>
        </mxCell>
        <mxCell id="4icqVZU4OuM1tH6_TToa-119" value="&lt;span style=&quot;font-weight: normal;&quot;&gt;x_enable&lt;/span&gt;" style="edgeLabel;html=1;align=center;verticalAlign=middle;resizable=0;points=[];fontColor=#00FF00;fontStyle=1;fontSize=13;container=0;" parent="4icqVZU4OuM1tH6_TToa-113" vertex="1" connectable="0">
          <mxGeometry x="-0.0295" relative="1" as="geometry">
            <mxPoint x="-211" y="-3" as="offset" />
          </mxGeometry>
        </mxCell>
        <mxCell id="4icqVZU4OuM1tH6_TToa-120" value="" style="endArrow=classic;html=1;rounded=0;entryX=-0.026;entryY=0.881;entryDx=0;entryDy=0;edgeStyle=orthogonalEdgeStyle;fillColor=#60a917;strokeColor=#2D7600;entryPerimeter=0;" parent="1" edge="1">
          <mxGeometry width="50" height="50" relative="1" as="geometry">
            <mxPoint x="429.06780288995924" y="444.06" as="sourcePoint" />
            <mxPoint x="576.1222675064839" y="445.06" as="targetPoint" />
          </mxGeometry>
        </mxCell>
        <mxCell id="4icqVZU4OuM1tH6_TToa-121" value="&lt;span style=&quot;font-weight: normal;&quot;&gt;addr_r&lt;/span&gt;" style="edgeLabel;html=1;align=center;verticalAlign=middle;resizable=0;points=[];fontStyle=1;fontColor=#00FF00;fontSize=13;container=0;" parent="4icqVZU4OuM1tH6_TToa-120" vertex="1" connectable="0">
          <mxGeometry x="0.0604" y="1" relative="1" as="geometry">
            <mxPoint as="offset" />
          </mxGeometry>
        </mxCell>
        <mxCell id="4icqVZU4OuM1tH6_TToa-122" value="" style="endArrow=classic;html=1;rounded=0;exitX=1.012;exitY=0.667;exitDx=0;exitDy=0;fillColor=#fa6800;strokeColor=#C73500;entryX=0.995;entryY=0.407;entryDx=0;entryDy=0;entryPerimeter=0;exitPerimeter=0;" parent="1" source="5UKPK0Xkv0rL48564Avm-79" edge="1">
          <mxGeometry width="50" height="50" relative="1" as="geometry">
            <mxPoint x="713.7232308262319" y="367" as="sourcePoint" />
            <mxPoint x="883.7862171174509" y="368" as="targetPoint" />
          </mxGeometry>
        </mxCell>
        <mxCell id="4icqVZU4OuM1tH6_TToa-123" value="&lt;span style=&quot;font-weight: normal;&quot;&gt;read_resp&lt;/span&gt;" style="edgeLabel;html=1;align=center;verticalAlign=middle;resizable=0;points=[];fontStyle=1;fontColor=#FF0000;fontSize=17;container=0;" parent="4icqVZU4OuM1tH6_TToa-122" vertex="1" connectable="0">
          <mxGeometry x="-0.0743" y="-1" relative="1" as="geometry">
            <mxPoint as="offset" />
          </mxGeometry>
        </mxCell>
        <mxCell id="4icqVZU4OuM1tH6_TToa-124" value="" style="ellipse;whiteSpace=wrap;html=1;fillColor=#00FF00;fontColor=#ffffff;strokeColor=#006EAF;container=0;gradientColor=none;" parent="1" vertex="1">
          <mxGeometry x="926.2519451648759" y="205.99" width="21.74805483512412" height="18.99" as="geometry" />
        </mxCell>
        <mxCell id="tJ9q71QjpeCQgc5nBUuA-1" value="MEMORY" style="rounded=1;whiteSpace=wrap;html=1;fillColor=#dae8fc;strokeColor=#6c8ebf;container=0;" parent="1" vertex="1">
          <mxGeometry x="626.1407928862543" y="230.67000000000002" width="86.86217117450907" height="66.33" as="geometry" />
        </mxCell>
        <mxCell id="tJ9q71QjpeCQgc5nBUuA-7" value="" style="shape=waypoint;sketch=0;fillStyle=solid;size=6;pointerEvents=1;points=[];fillColor=none;resizable=0;rotatable=0;perimeter=centerPerimeter;snapToPoint=1;container=0;" parent="1" vertex="1">
          <mxGeometry x="565.1181919229344" y="255" width="20" height="20" as="geometry" />
        </mxCell>
        <mxCell id="tJ9q71QjpeCQgc5nBUuA-8" value="" style="shape=waypoint;sketch=0;fillStyle=solid;size=6;pointerEvents=1;points=[];fillColor=none;resizable=0;rotatable=0;perimeter=centerPerimeter;snapToPoint=1;container=0;" parent="1" vertex="1">
          <mxGeometry x="565.1181919229344" y="299" width="20" height="20" as="geometry" />
        </mxCell>
        <mxCell id="tJ9q71QjpeCQgc5nBUuA-14" value="" style="endArrow=classic;html=1;rounded=0;endSize=8;startSize=8;entryX=0;entryY=0.5;entryDx=0;entryDy=0;" parent="1" source="tJ9q71QjpeCQgc5nBUuA-7" target="tJ9q71QjpeCQgc5nBUuA-1" edge="1">
          <mxGeometry width="50" height="50" relative="1" as="geometry">
            <mxPoint x="654.1511670989255" y="201" as="sourcePoint" />
            <mxPoint x="666.1556131900704" y="241" as="targetPoint" />
          </mxGeometry>
        </mxCell>
        <mxCell id="tJ9q71QjpeCQgc5nBUuA-15" value="" style="endArrow=classic;html=1;rounded=0;endSize=8;startSize=8;entryX=0;entryY=0.75;entryDx=0;entryDy=0;edgeStyle=orthogonalEdgeStyle;" parent="1" source="tJ9q71QjpeCQgc5nBUuA-8" target="tJ9q71QjpeCQgc5nBUuA-1" edge="1">
          <mxGeometry width="50" height="50" relative="1" as="geometry">
            <mxPoint x="585.1256020748425" y="275" as="sourcePoint" />
            <mxPoint x="623.139681363468" y="274" as="targetPoint" />
          </mxGeometry>
        </mxCell>
        <mxCell id="tJ9q71QjpeCQgc5nBUuA-50" value="rules_array" style="rounded=0;whiteSpace=wrap;html=1;dashed=1;container=0;" parent="1" vertex="1">
          <mxGeometry x="622.1393108558725" y="331.19" width="89.03297517599111" height="41" as="geometry" />
        </mxCell>
        <mxCell id="tJ9q71QjpeCQgc5nBUuA-51" value="" style="edgeStyle=orthogonalEdgeStyle;endArrow=classic;html=1;rounded=0;endSize=8;startSize=8;entryX=0.5;entryY=0;entryDx=0;entryDy=0;exitX=1;exitY=0.5;exitDx=0;exitDy=0;" parent="1" source="tJ9q71QjpeCQgc5nBUuA-1" target="tJ9q71QjpeCQgc5nBUuA-50" edge="1">
          <mxGeometry width="50" height="50" relative="1" as="geometry">
            <mxPoint x="578.1230085216747" y="233" as="sourcePoint" />
            <mxPoint x="629.1419044090403" y="250" as="targetPoint" />
          </mxGeometry>
        </mxCell>
        <mxCell id="5UKPK0Xkv0rL48564Avm-11" value="" style="endArrow=classic;html=1;rounded=0;entryX=0.25;entryY=0;entryDx=0;entryDy=0;" parent="1" target="tJ9q71QjpeCQgc5nBUuA-1" edge="1">
          <mxGeometry width="50" height="50" relative="1" as="geometry">
            <mxPoint x="552.026373406417" y="118.82164556962016" as="sourcePoint" />
            <mxPoint x="636" y="147" as="targetPoint" />
          </mxGeometry>
        </mxCell>
        <mxCell id="gyKQ24Q-jmimMS2x2QPJ-4" value="&lt;span style=&quot;color: rgb(0, 0, 255); font-size: 13px;&quot;&gt;data_rule&lt;/span&gt;" style="edgeLabel;html=1;align=center;verticalAlign=middle;resizable=0;points=[];" vertex="1" connectable="0" parent="5UKPK0Xkv0rL48564Avm-11">
          <mxGeometry x="0.0523" y="1" relative="1" as="geometry">
            <mxPoint y="-6" as="offset" />
          </mxGeometry>
        </mxCell>
        <mxCell id="gyKQ24Q-jmimMS2x2QPJ-5" value="" style="ellipse;whiteSpace=wrap;html=1;fillColor=#ff0000;fontColor=#ffffff;strokeColor=#006EAF;container=0;gradientColor=none;" vertex="1" parent="1">
          <mxGeometry x="926.2519451648759" y="254.34" width="21.74805483512412" height="18.99" as="geometry" />
        </mxCell>
        <mxCell id="gyKQ24Q-jmimMS2x2QPJ-6" value="&lt;font color=&quot;#ff0000&quot;&gt;Réponses de wrapper&lt;/font&gt;" style="text;html=1;align=center;verticalAlign=middle;whiteSpace=wrap;rounded=0;container=0;" vertex="1" parent="1">
          <mxGeometry x="948" y="250.83999999999997" width="95.81" height="30" as="geometry" />
        </mxCell>
        <mxCell id="gyKQ24Q-jmimMS2x2QPJ-7" value="" style="ellipse;whiteSpace=wrap;html=1;fillColor=#000000;fontColor=#ffffff;strokeColor=#006EAF;container=0;gradientColor=none;" vertex="1" parent="1">
          <mxGeometry x="926.2519451648759" y="113" width="21.74805483512412" height="18.99" as="geometry" />
        </mxCell>
        <mxCell id="gyKQ24Q-jmimMS2x2QPJ-8" value="Signaux de l&#39;AXI" style="text;html=1;align=center;verticalAlign=middle;whiteSpace=wrap;rounded=0;container=0;" vertex="1" parent="1">
          <mxGeometry x="957" y="108" width="95.81" height="30" as="geometry" />
        </mxCell>
      </root>
    </mxGraphModel>
  </diagram>
</mxfile>
